<svg width="24" height="24" viewBox="0 0 24 24" fill="none" xmlns="http://www.w3.org/2000/svg">
<path d="M20 5H21V5L20 5ZM15.7998 17V16H14.9801L14.8192 16.8038L15.7998 17ZM15.21 19.9482L16.1904 20.1452L16.1905 20.1444L15.21 19.9482ZM14.3301 20.1621L13.5493 20.7869L13.5495 20.7871L14.3301 20.1621ZM11.7998 17L12.5806 16.3752L12.2804 16H11.7998V17ZM19 4V5V5L20 5L21 5C21 3.89543 20.1046 3 19 3V4ZM20 5H19V16H20H21V5H20ZM20 16H19V17V18C20.1046 18 21 17.1046 21 16H20ZM19 17V16H15.7998V17V18H19V17ZM15.7998 17L14.8192 16.8038L14.2294 19.7521L15.21 19.9482L16.1905 20.1444L16.7804 17.1962L15.7998 17ZM15.21 19.9482L14.2296 19.7513C14.3132 19.3352 14.8452 19.2055 15.1107 19.5371L14.3301 20.1621L13.5495 20.7871C14.3456 21.7815 15.9395 21.3936 16.1904 20.1452L15.21 19.9482ZM14.3301 20.1621L15.1109 19.5373L12.5806 16.3752L11.7998 17L11.019 17.6248L13.5493 20.7869L14.3301 20.1621ZM11.7998 17V16H5V17V18H11.7998V17ZM5 17V16H4H3C3 17.1046 3.89543 18 5 18V17ZM4 16H5V5H4H3V16H4ZM4 5H5V4V3C3.89543 3 3 3.89543 3 5H4ZM5 4V5H19V4V3H5V4Z" fill="currentColor"/>
</svg>
