<svg width="24" height="24" viewBox="0 0 24 24" fill="none" xmlns="http://www.w3.org/2000/svg">
<path d="M8.46484 2C8.79919 2.00001 9.11141 2.16712 9.29688 2.44531L10.7031 4.55469C10.8886 4.83288 11.2008 4.99999 11.5352 5H21C21.5523 5 22 5.44772 22 6V19C22 19.5523 21.5523 20 21 20H3C2.44772 20 2 19.5523 2 19V3C2 2.44772 2.44772 2 3 2H8.46484ZM11.1602 12.8408L9.62012 11.3008L8.7002 12.2207L10.7002 14.2207L11.1602 14.6797L11.6201 14.2207L15.1201 10.7207L14.2002 9.80078L11.1602 12.8408Z" fill="currentColor"/>
</svg>
