<svg width="20" height="20" viewBox="0 0 20 20" fill="none" xmlns="http://www.w3.org/2000/svg">
<path d="M8 3C7.37935 2.99968 6.77387 3.19186 6.26702 3.55006C5.76016 3.90826 5.37688 4.41484 5.17 5H2V7H5.17C5.3766 7.58553 5.75974 8.09257 6.2666 8.45121C6.77346 8.80985 7.37909 9.00245 8 9.00245C8.62091 9.00245 9.22654 8.80985 9.7334 8.45121C10.2403 8.09257 10.6234 7.58553 10.83 7H18V5H10.83C10.6231 4.41484 10.2398 3.90826 9.73298 3.55006C9.22613 3.19186 8.62065 2.99968 8 3ZM12 11C11.3793 10.9997 10.7739 11.1919 10.267 11.5501C9.76016 11.9083 9.37688 12.4148 9.17 13H2V15H9.17C9.3766 15.5855 9.75974 16.0926 10.2666 16.4512C10.7735 16.8099 11.3791 17.0025 12 17.0025C12.6209 17.0025 13.2265 16.8099 13.7334 16.4512C14.2403 16.0926 14.6234 15.5855 14.83 15H18V13H14.83C14.6231 12.4148 14.2398 11.9083 13.733 11.5501C13.2261 11.1919 12.6207 10.9997 12 11Z" fill="currentColor"/>
</svg>
