<svg width="24" height="24" viewBox="0 0 24 24" fill="none" xmlns="http://www.w3.org/2000/svg">
<g clip-path="url(#clip0_40005082_88348)">
<path d="M7.65134 1.57343C6.53414 1.62614 5.77121 1.80443 5.10425 2.06651C4.41398 2.33552 3.82892 2.69651 3.2468 3.28073C2.66468 3.86495 2.30621 4.45043 2.03909 5.14175C1.78058 5.81018 1.60544 6.57374 1.55609 7.69158C1.50674 8.80941 1.49582 9.16872 1.50128 12.0201C1.50674 14.8715 1.51934 15.2289 1.57352 16.349C1.62686 17.466 1.80452 18.2287 2.0666 18.8959C2.33603 19.5862 2.6966 20.171 3.28103 20.7534C3.86546 21.3357 4.45052 21.6933 5.14352 21.9609C5.81132 22.219 6.57509 22.3949 7.69271 22.4439C8.81033 22.4928 9.17006 22.5041 12.0206 22.4987C14.8711 22.4932 15.23 22.4806 16.35 22.4275C17.4699 22.3744 18.2286 22.1954 18.896 21.9346C19.5863 21.6646 20.1715 21.3046 20.7534 20.72C21.3354 20.1353 21.6936 19.5494 21.9605 18.8577C22.2192 18.1899 22.395 17.4261 22.4435 16.3093C22.4925 15.1886 22.504 14.8307 22.4985 11.9798C22.4931 9.12882 22.4803 8.7714 22.4271 7.65168C22.374 6.53196 22.1961 5.77154 21.9343 5.10395C21.6644 4.41368 21.3043 3.82925 20.7201 3.2465C20.1358 2.66375 19.5495 2.3057 18.858 2.03942C18.1898 1.78091 17.4264 1.60472 16.3088 1.55642C15.1912 1.50812 14.8314 1.49573 11.9799 1.50119C9.12827 1.50665 8.77127 1.51883 7.65134 1.57343ZM7.77398 20.5549C6.75023 20.5104 6.19436 20.3403 5.82392 20.1979C5.33336 20.0089 4.98392 19.7804 4.61474 19.4148C4.24556 19.0492 4.01876 18.6985 3.82724 18.209C3.68339 17.8386 3.51014 17.2833 3.46226 16.2596C3.41018 15.1531 3.39926 14.8209 3.39317 12.0176C3.38708 9.21428 3.39779 8.88248 3.4463 7.77558C3.48998 6.75267 3.66113 6.19617 3.8033 5.82593C3.9923 5.33474 4.21994 4.98593 4.58639 4.61696C4.95284 4.24799 5.30249 4.02077 5.79242 3.82925C6.16244 3.68477 6.71768 3.51299 7.74101 3.46427C8.84834 3.41177 9.18014 3.40127 11.983 3.39518C14.7859 3.38909 15.1185 3.39959 16.2263 3.44831C17.2492 3.49283 17.8059 3.6623 18.1757 3.80531C18.6665 3.99431 19.0157 4.22132 19.3847 4.58841C19.7536 4.95549 19.9811 5.30387 20.1726 5.79486C20.3173 6.16383 20.4891 6.71885 20.5374 7.74282C20.5901 8.85015 20.602 9.18216 20.6071 11.9848C20.6121 14.7875 20.6022 15.1203 20.5537 16.2268C20.509 17.2506 20.3393 17.8066 20.1967 18.1775C20.0077 18.6679 19.7799 19.0175 19.4132 19.3863C19.0466 19.755 18.6973 19.9822 18.2072 20.1738C17.8376 20.318 17.2817 20.4902 16.2592 20.539C15.1519 20.591 14.8201 20.602 12.0162 20.608C9.21227 20.6141 8.88152 20.6028 7.77419 20.5549M16.3338 6.3881C16.3342 6.63733 16.4085 6.88083 16.5473 7.08781C16.6861 7.2948 16.8832 7.45596 17.1136 7.55093C17.3441 7.6459 17.5975 7.67041 17.8418 7.62135C18.0862 7.57229 18.3105 7.45187 18.4864 7.27532C18.6623 7.09877 18.7819 6.87402 18.83 6.6295C18.8782 6.38497 18.8528 6.13166 18.7569 5.90159C18.6611 5.67152 18.4992 5.47504 18.2917 5.33698C18.0843 5.19893 17.8405 5.12551 17.5913 5.126C17.2572 5.12667 16.937 5.26001 16.7012 5.49668C16.4654 5.73336 16.3332 6.054 16.3338 6.3881ZM6.60869 12.0104C6.61457 14.9882 9.03293 17.3967 12.0101 17.3911C14.9873 17.3854 17.3974 14.9672 17.3918 11.9894C17.3861 9.01164 14.9671 6.60251 11.9895 6.6084C9.01193 6.61427 6.60302 9.03306 6.60869 12.0104ZM8.49995 12.0067C8.49858 11.3144 8.70251 10.6373 9.08597 10.061C9.46942 9.48462 10.0152 9.03492 10.6542 8.76875C11.2932 8.50257 11.9968 8.43186 12.676 8.56557C13.3553 8.69928 13.9796 9.03139 14.47 9.51991C14.9605 10.0084 15.2951 10.6314 15.4315 11.3101C15.5679 11.9888 15.4999 12.6927 15.2363 13.3327C14.9727 13.9728 14.5251 14.5203 13.9503 14.9061C13.3755 15.2918 12.6992 15.4984 12.0069 15.4998C11.5473 15.5008 11.092 15.4112 10.6669 15.2361C10.2419 15.0611 9.85553 14.8041 9.52987 14.4797C9.2042 14.1553 8.94563 13.7699 8.76891 13.3456C8.5922 12.9213 8.5008 12.4663 8.49995 12.0067Z" fill="black"/>
</g>
<defs>
<clipPath id="clip0_40005082_88348">
<rect width="21" height="20.9999" fill="white" transform="translate(1.5 1.5)"/>
</clipPath>
</defs>
</svg>
