<svg width="24" height="24" viewBox="0 0 24 24" fill="none" xmlns="http://www.w3.org/2000/svg">
<mask id="mask0_40004263_166208" style="mask-type:alpha" maskUnits="userSpaceOnUse" x="0" y="0" width="24" height="24">
<rect width="24" height="24" fill="#D9D9D9"/>
</mask>
<g mask="url(#mask0_40004263_166208)">
<path d="M6.00781 21.9873C5.45781 21.9873 4.98698 21.7915 4.59531 21.3998C4.20365 21.0081 4.00781 20.5373 4.00781 19.9873V9.9873C4.00781 9.4373 4.20365 8.96647 4.59531 8.5748C4.98698 8.18314 5.45781 7.98731 6.00781 7.98731H7.00781V5.9873C7.00781 4.60397 7.49531 3.4248 8.47031 2.4498C9.44531 1.4748 10.6245 0.987305 12.0078 0.987305C13.3911 0.987305 14.5703 1.4748 15.5453 2.4498C16.5203 3.4248 17.0078 4.60397 17.0078 5.9873V7.98731H18.0078C18.5578 7.98731 19.0286 8.18314 19.4203 8.5748C19.812 8.96647 20.0078 9.4373 20.0078 9.9873V19.9873C20.0078 20.5373 19.812 21.0081 19.4203 21.3998C19.0286 21.7915 18.5578 21.9873 18.0078 21.9873H6.00781ZM12.0078 16.9873C12.5578 16.9873 13.0286 16.7915 13.4203 16.3998C13.812 16.0081 14.0078 15.5373 14.0078 14.9873C14.0078 14.4373 13.812 13.9665 13.4203 13.5748C13.0286 13.1831 12.5578 12.9873 12.0078 12.9873C11.4578 12.9873 10.987 13.1831 10.5953 13.5748C10.2036 13.9665 10.0078 14.4373 10.0078 14.9873C10.0078 15.5373 10.2036 16.0081 10.5953 16.3998C10.987 16.7915 11.4578 16.9873 12.0078 16.9873ZM9.00781 7.98731H15.0078V5.9873C15.0078 5.15397 14.7161 4.44564 14.1328 3.8623C13.5495 3.27897 12.8411 2.9873 12.0078 2.9873C11.1745 2.9873 10.4661 3.27897 9.88281 3.8623C9.29948 4.44564 9.00781 5.15397 9.00781 5.9873V7.98731Z" fill="currentColor"/>
</g>
</svg>
