<svg width="44" height="44" viewBox="0 0 44 44" fill="none" xmlns="http://www.w3.org/2000/svg">
<path d="M19.707 28.875H24.2904V33.4583H19.707V28.875Z" fill="currentColor"/>
<path fill-rule="evenodd" clip-rule="evenodd" d="M22.0013 14.6667C19.8105 14.6667 18.3346 16.6577 18.3346 18.3333H14.668C14.668 15.0297 17.4106 11 22.0013 11C26.5773 11 29.3346 14.927 29.3346 18.3333C29.3346 21.2263 27.3033 22.693 26.0456 23.6005L25.833 23.7545C24.4488 24.7665 23.8346 25.3422 23.8346 26.5833H20.168C20.168 23.353 22.2965 21.7983 23.6641 20.7992L23.6696 20.7955C25.195 19.679 25.668 19.2555 25.668 18.3333C25.668 16.5917 24.2086 14.6667 22.0013 14.6667Z" fill="white"/>
</svg>
