<svg viewBox="0 0 16 16" fill="none" xmlns="http://www.w3.org/2000/svg">
  <mask id="mask0_40001667_20442" style="mask-type:alpha" maskUnits="userSpaceOnUse" x="0" y="0" width="16" height="16">
    <rect width="16" height="16" fill="#D9D9D9"/>
  </mask>
  <g mask="url(#mask0_40001667_20442)">
    <path d="M8.03464 13.3346C6.54575 13.3346 5.27908 12.818 4.23464 11.7846C3.19019 10.7513 2.66797 9.49019 2.66797 8.0013V7.88464L1.6013 8.9513L0.667969 8.01797L3.33464 5.3513L6.0013 8.01797L5.06797 8.9513L4.0013 7.88464V8.0013C4.0013 9.11241 4.39297 10.0569 5.1763 10.8346C5.95964 11.6124 6.91241 12.0013 8.03464 12.0013C8.32352 12.0013 8.60686 11.968 8.88464 11.9013C9.16241 11.8346 9.43464 11.7346 9.7013 11.6013L10.7013 12.6013C10.2791 12.8457 9.84575 13.0291 9.4013 13.1513C8.95686 13.2735 8.5013 13.3346 8.03464 13.3346ZM12.668 10.6513L10.0013 7.98464L10.9346 7.0513L12.0013 8.11797V8.0013C12.0013 6.89019 11.6096 5.94575 10.8263 5.16797C10.043 4.39019 9.09019 4.0013 7.96797 4.0013C7.67908 4.0013 7.39575 4.03464 7.11797 4.1013C6.84019 4.16797 6.56797 4.26797 6.3013 4.4013L5.3013 3.4013C5.72352 3.15686 6.15686 2.97352 6.6013 2.8513C7.04575 2.72908 7.5013 2.66797 7.96797 2.66797C9.45686 2.66797 10.7235 3.18464 11.768 4.21797C12.8124 5.2513 13.3346 6.51241 13.3346 8.0013V8.11797L14.4013 7.0513L15.3346 7.98464L12.668 10.6513Z" fill="currentColor"/>
  </g>
</svg>