<svg width="24" height="24" viewBox="0 0 24 24" fill="none" xmlns="http://www.w3.org/2000/svg">
<mask id="mask0_40002842_22921" style="mask-type:alpha" maskUnits="userSpaceOnUse" x="0" y="0" width="24" height="24">
<rect width="24" height="24" fill="#D9D9D9"/>
</mask>
<g mask="url(#mask0_40002842_22921)">
<path d="M11.0008 22.95V20.95C8.91745 20.7167 7.12995 19.8542 5.63828 18.3625C4.14661 16.8709 3.28411 15.0834 3.05078 13H1.05078V11H3.05078C3.28411 8.91672 4.14661 7.12922 5.63828 5.63755C7.12995 4.14588 8.91745 3.28338 11.0008 3.05005V1.05005H13.0008V3.05005C15.0841 3.28338 16.8716 4.14588 18.3633 5.63755C19.8549 7.12922 20.7174 8.91672 20.9508 11H22.9508V13H20.9508C20.7174 15.0834 19.8549 16.8709 18.3633 18.3625C16.8716 19.8542 15.0841 20.7167 13.0008 20.95V22.95H11.0008ZM12.0008 19C13.9341 19 15.5841 18.3167 16.9508 16.95C18.3174 15.5834 19.0008 13.9334 19.0008 12C19.0008 10.0667 18.3174 8.41672 16.9508 7.05005C15.5841 5.68338 13.9341 5.00005 12.0008 5.00005C10.0674 5.00005 8.41745 5.68338 7.05078 7.05005C5.68411 8.41672 5.00078 10.0667 5.00078 12C5.00078 13.9334 5.68411 15.5834 7.05078 16.95C8.41745 18.3167 10.0674 19 12.0008 19ZM12.0008 16C10.9008 16 9.95912 15.6084 9.17578 14.825C8.39245 14.0417 8.00078 13.1 8.00078 12C8.00078 10.9 8.39245 9.95838 9.17578 9.17505C9.95912 8.39172 10.9008 8.00005 12.0008 8.00005C13.1008 8.00005 14.0424 8.39172 14.8258 9.17505C15.6091 9.95838 16.0008 10.9 16.0008 12C16.0008 13.1 15.6091 14.0417 14.8258 14.825C14.0424 15.6084 13.1008 16 12.0008 16Z" fill="currentColor"/>
</g>
</svg>
