<svg width="20" height="20" viewBox="0 0 20 20" fill="none" xmlns="http://www.w3.org/2000/svg">
<mask id="mask0_40004272_166649" style="mask-type:alpha" maskUnits="userSpaceOnUse" x="0" y="0" width="20" height="20">
<rect width="20" height="20" fill="#D9D9D9"/>
</mask>
<g mask="url(#mask0_40004272_166649)">
<path d="M15.0013 17.4997H6.66797V6.66634L12.5013 0.833008L13.543 1.87467C13.6402 1.9719 13.7201 2.10384 13.7826 2.27051C13.8451 2.43717 13.8763 2.5969 13.8763 2.74967V3.04134L12.9596 6.66634H17.5013C17.9457 6.66634 18.3346 6.83301 18.668 7.16634C19.0013 7.49967 19.168 7.88856 19.168 8.33301V9.99967C19.168 10.0969 19.1576 10.2011 19.1367 10.3122C19.1159 10.4233 19.0846 10.5275 19.043 10.6247L16.543 16.4997C16.418 16.7775 16.2096 17.0136 15.918 17.208C15.6263 17.4025 15.3207 17.4997 15.0013 17.4997ZM5.0013 6.66634V17.4997H1.66797V6.66634H5.0013Z" fill="currentColor"/>
</g>
</svg>
