<svg width="20" height="20" viewBox="0 0 20 20" fill="none" xmlns="http://www.w3.org/2000/svg">
<mask id="mask0_40005495_18653" style="mask-type:alpha" maskUnits="userSpaceOnUse" x="0" y="0" width="20" height="20">
<rect width="20" height="20" fill="#D9D9D9"/>
</mask>
<g mask="url(#mask0_40005495_18653)">
<path d="M15.0013 17.5007H5.83464V6.66732L11.668 0.833984L12.7096 1.87565C12.8069 1.97287 12.8867 2.10482 12.9492 2.27148C13.0117 2.43815 13.043 2.59787 13.043 2.75065V3.04232L12.1263 6.66732H17.5013C17.9457 6.66732 18.3346 6.83398 18.668 7.16732C19.0013 7.50065 19.168 7.88954 19.168 8.33398V10.0007C19.168 10.0979 19.1541 10.202 19.1263 10.3132C19.0985 10.4243 19.0707 10.5284 19.043 10.6257L16.543 16.5007C16.418 16.7784 16.2096 17.0145 15.918 17.209C15.6263 17.4034 15.3207 17.5007 15.0013 17.5007ZM7.5013 15.834H15.0013L17.5013 10.0007V8.33398H10.0013L11.1263 3.75065L7.5013 7.37565V15.834ZM5.83464 6.66732V8.33398H3.33464V15.834H5.83464V17.5007H1.66797V6.66732H5.83464Z" fill="currentColor"/>
</g>
</svg>
