<svg width="24" height="24" viewBox="0 0 24 24" fill="none" xmlns="http://www.w3.org/2000/svg">
<path d="M20 2C20.5522 2.00016 21 2.44781 21 3V19C21 19.5522 20.5522 19.9998 20 20H14.7871C14.4298 20 14.0995 20.1906 13.9209 20.5L12.8682 22.3232C12.4833 22.9898 11.5217 22.9898 11.1367 22.3232L10.083 20.5C9.90442 20.1908 9.57482 20.0001 9.21777 20H4C3.44772 20 3 19.5523 3 19V3C3 2.44772 3.44772 2 4 2H20ZM10.2666 8.58789C9.9906 8.58792 9.76679 8.81193 9.7666 9.08789V12.5586C9.7666 12.8347 9.99048 13.0586 10.2666 13.0586H13.7373C14.0134 13.0586 14.2373 12.8347 14.2373 12.5586V9.08789C14.2371 8.81193 14.0133 8.58792 13.7373 8.58789H10.2666Z" fill="currentColor"/>
</svg>
