<svg width="24" height="24" viewBox="0 0 24 24" fill="none" xmlns="http://www.w3.org/2000/svg">
<mask id="path-1-inside-1_40002130_70783" fill="white">
<path d="M20 2C20.5522 2.00016 21.001 2.44781 21.001 3V19C21.001 19.5522 20.5522 19.9998 20 20H15.1777C14.8417 20 14.5278 20.1687 14.3428 20.4492L12.835 22.7344C12.4398 23.3333 11.5614 23.334 11.166 22.7354L9.65723 20.4492C9.47222 20.1689 9.15906 20.0001 8.82324 20H4.00098C3.44869 20 3 19.5523 3 19V3C3 2.44772 3.44869 2 4.00098 2H20Z"/>
</mask>
<path d="M20 2L20.0006 0H20V2ZM21.001 3H23.001H21.001ZM21.001 19H23.001H21.001ZM20 20V22H20.0006L20 20ZM14.3428 20.4492L16.0121 21.5507L16.0122 21.5506L14.3428 20.4492ZM12.835 22.7344L11.1656 21.6329L11.1655 21.6331L12.835 22.7344ZM11.166 22.7354L9.49678 23.837L9.49712 23.8375L11.166 22.7354ZM9.65723 20.4492L11.3265 19.3476L11.3264 19.3474L9.65723 20.4492ZM8.82324 20L8.82406 18H8.82324V20ZM3 19H1H3ZM3 3L1 3V3H3ZM20 2L19.9994 4C19.4506 3.99984 19.001 3.55549 19.001 3H21.001H23.001C23.001 1.34014 21.6537 0.000470638 20.0006 1.19209e-07L20 2ZM21.001 3H19.001V19H21.001H23.001V3H21.001ZM21.001 19H19.001C19.001 18.4445 19.4506 18.0002 19.9994 18L20 20L20.0006 22C21.6537 21.9995 23.001 20.6599 23.001 19H21.001ZM20 20V18H15.1777V20V22H20V20ZM15.1777 20V18C14.1705 18 13.2291 18.5055 12.6733 19.3479L14.3428 20.4492L16.0122 21.5506C15.8266 21.8319 15.5128 22 15.1777 22V20ZM14.3428 20.4492L12.6734 19.3477L11.1656 21.6329L12.835 22.7344L14.5043 23.8359L16.0121 21.5507L14.3428 20.4492ZM12.835 22.7344L11.1655 21.6331C11.5595 21.0358 12.4384 21.0328 12.8349 21.6332L11.166 22.7354L9.49712 23.8375C10.6844 25.6353 13.3202 25.6309 14.5044 23.8357L12.835 22.7344ZM11.166 22.7354L12.8353 21.6337L11.3265 19.3476L9.65723 20.4492L7.98799 21.5509L9.49678 23.837L11.166 22.7354ZM9.65723 20.4492L11.3264 19.3474C10.7718 18.5073 9.83239 18.0004 8.82406 18L8.82324 20L8.82243 22C8.48573 21.9999 8.17261 21.8306 7.98808 21.551L9.65723 20.4492ZM8.82324 20V18H4.00098V20V22H8.82324V20ZM4.00098 20V18C4.55072 18 5 18.4452 5 19H3H1C1 20.6594 2.34667 22 4.00098 22V20ZM3 19H5V3H3H1V19H3ZM3 3L5 3C5 3.55483 4.55072 4 4.00098 4V2V0C2.34666 0 1 1.34061 1 3L3 3ZM4.00098 2V4H20V2V0H4.00098V2Z" fill="#364153" mask="url(#path-1-inside-1_40002130_70783)"/>
<rect x="10.2695" y="9.05908" width="3.47" height="3.47" rx="0.5" fill="#364153" stroke="#364153"/>
</svg>
