<svg width="27" height="27" viewBox="0 0 27 27" fill="none" xmlns="http://www.w3.org/2000/svg">
<rect x="5.125" y="3.625" width="2.5" height="4.75" rx="0.875" stroke="#1E2939" stroke-width="1.25"/>
<rect x="0.625" y="0.625" width="14.5" height="4.75" rx="0.875" stroke="#1E2939" stroke-width="1.25"/>
<rect x="0.625" y="0.625" width="14.5" height="4.75" rx="0.875" fill="#F3F4F6" stroke="#1E2939" stroke-width="1.25"/>
<mask id="path-4-inside-1_40002728_60645" fill="white">
<path d="M25.5 0C26.3284 1.20798e-07 27 0.671573 27 1.5V25.5C27 26.3284 26.3284 27 25.5 27H1.5C0.671573 27 2.41598e-08 26.3284 0 25.5V24C0 23.1716 0.671573 22.5 1.5 22.5H12.75V0H25.5Z"/>
</mask>
<path d="M25.5 0C26.3284 1.20798e-07 27 0.671573 27 1.5V25.5C27 26.3284 26.3284 27 25.5 27H1.5C0.671573 27 2.41598e-08 26.3284 0 25.5V24C0 23.1716 0.671573 22.5 1.5 22.5H12.75V0H25.5Z" fill="#F3F4F6"/>
<path d="M25.5 0V-1.25V0ZM27 1.5H28.25H27ZM27 25.5H28.25H27ZM25.5 27V28.25V27ZM1.5 27L1.5 28.25H1.5V27ZM0 25.5H-1.25H0ZM1.5 22.5V21.25V22.5ZM12.75 22.5V23.75H14V22.5H12.75ZM12.75 0V-1.25H11.5V0H12.75ZM25.5 0V1.25C25.6381 1.25 25.75 1.36193 25.75 1.5H27H28.25C28.25 -0.0187831 27.0188 -1.25 25.5 -1.25V0ZM27 1.5H25.75V25.5H27H28.25V1.5H27ZM27 25.5H25.75C25.75 25.6381 25.6381 25.75 25.5 25.75V27V28.25C27.0188 28.25 28.25 27.0188 28.25 25.5H27ZM25.5 27V25.75H1.5V27V28.25H25.5V27ZM1.5 27L1.5 25.75C1.36193 25.75 1.25 25.6381 1.25 25.5H0H-1.25C-1.25 27.0188 -0.0187823 28.25 1.5 28.25L1.5 27ZM0 25.5H1.25V24H0H-1.25V25.5H0ZM0 24H1.25C1.25 23.8619 1.36193 23.75 1.5 23.75V22.5V21.25C-0.018783 21.25 -1.25 22.4812 -1.25 24H0ZM1.5 22.5V23.75H12.75V22.5V21.25H1.5V22.5ZM12.75 22.5H14V0H12.75H11.5V22.5H12.75ZM12.75 0V1.25H25.5V0V-1.25H12.75V0Z" fill="#1E2939" mask="url(#path-4-inside-1_40002728_60645)"/>
<path d="M3.57031 13.75H9.17969C9.70512 13.75 10.1127 14.2099 10.0488 14.7314L9.12988 22.2314C9.07608 22.6702 8.70379 23 8.26172 23H4.48828C4.04621 23 3.67392 22.6702 3.62012 22.2314L2.70117 14.7314C2.63731 14.2099 3.04488 13.75 3.57031 13.75Z" stroke="#1E2939" stroke-width="1.25"/>
<line x1="9.75" y1="17.125" x2="3" y2="17.125" stroke="#1E2939" stroke-width="1.25"/>
</svg>
