<svg width="20" height="20" viewBox="0 0 20 20" fill="none" xmlns="http://www.w3.org/2000/svg">
<g clip-path="url(#clip0_40001576_10804)">
<path d="M7.52205 11.4498V19.9991C7.3923 20.0038 7.26441 19.9813 7.14212 19.9334C7.09171 19.9156 7.04504 19.8931 6.9993 19.8659L0.50035 16.0937C0.452742 16.0665 0.407935 16.0355 0.364994 16.0008C0.187631 15.8554 0.0653442 15.6489 0.0224037 15.4228C0.00746791 15.3599 0 15.2923 0 15.2238V7.5594C0 7.49184 0.00746791 7.42334 0.0224037 7.35859C0.042007 7.24505 0.0849475 7.13526 0.147491 7.03674C0.235239 6.88848 0.360327 6.76555 0.517153 6.67735L4.50502 4.47129C4.81213 4.30051 5.1846 4.3052 5.48798 4.48161L7.50058 5.64798V11.4376L7.52299 11.4498H7.52205Z" fill="white"/>
<path d="M12.1954 0.862608C12.1478 0.817568 12.0984 0.777219 12.0452 0.741561C11.7474 0.548261 11.3497 0.510727 11.0006 0.714349L8.00035 2.45593C7.69043 2.63421 7.5 2.96639 7.5 3.32578V18.4163C7.5 18.4895 7.50747 18.5599 7.5224 18.6275V19.9993C7.68763 19.9965 7.85286 19.9515 8.00035 19.8661L12.0004 17.5437C12.3103 17.3654 12.5007 17.0332 12.5007 16.6738V1.5842C12.5007 1.29237 12.3803 1.04183 12.1954 0.862608Z" fill="white"/>
<path d="M19.9997 4.7781V9.41918C19.9997 9.77857 19.8093 10.1098 19.4994 10.2909L16.4347 12.07C15.7822 12.4472 14.9645 11.995 14.9346 11.2386L14.7918 7.51902C14.7768 7.17465 14.5892 6.8603 14.2914 6.68764L12.4991 5.64701L7.63379 2.82258C7.71874 2.6715 7.84382 2.54389 7.99878 2.45568L11.9997 0.134203C12.3096 -0.0440834 12.6896 -0.0440834 12.9995 0.134203L19.4994 3.90637C19.8093 4.08747 19.9997 4.41871 19.9997 4.7781Z" fill="white"/>
</g>
<defs>
<clipPath id="clip0_40001576_10804">
<rect width="20" height="20" fill="currentColor"/>
</clipPath>
</defs>
</svg>
