<svg width="24" height="24" viewBox="0 0 24 24" fill="none" xmlns="http://www.w3.org/2000/svg">
<g clip-path="url(#clip0_40005097_5418)">
<path d="M9.52205 13.4493V21.9986C9.3923 22.0033 9.26441 21.9808 9.14212 21.9329C9.09171 21.9151 9.04504 21.8926 8.9993 21.8654L2.50035 18.0932C2.45274 18.066 2.40793 18.035 2.36499 18.0003C2.18763 17.8549 2.06534 17.6484 2.0224 17.4223C2.00747 17.3594 2 17.2919 2 17.2234V9.55891C2 9.49135 2.00747 9.42285 2.0224 9.3581C2.04201 9.24456 2.08495 9.13478 2.14749 9.03625C2.23524 8.88799 2.36033 8.76507 2.51715 8.67686L6.50502 6.4708C6.81213 6.30002 7.1846 6.30471 7.48798 6.48112L9.50058 7.64749V13.4371L9.52299 13.4493H9.52205Z" fill="currentColor"/>
<path d="M14.1954 2.86261C14.1478 2.81757 14.0984 2.77722 14.0452 2.74156C13.7474 2.54826 13.3497 2.51073 13.0006 2.71435L10.0004 4.45593C9.69043 4.63421 9.5 4.96639 9.5 5.32578V20.4163C9.5 20.4895 9.50747 20.5599 9.5224 20.6275V21.9993C9.68763 21.9965 9.85286 21.9515 10.0004 21.8661L14.0004 19.5437C14.3103 19.3654 14.5007 19.0332 14.5007 18.6738V3.5842C14.5007 3.29237 14.3803 3.04183 14.1954 2.86261Z" fill="currentColor"/>
<path d="M21.9987 6.77761V11.4187C21.9987 11.7781 21.8083 12.1093 21.4984 12.2904L18.4337 14.0695C17.7812 14.4467 16.9635 13.9945 16.9336 13.2382L16.7908 9.51853C16.7759 9.17416 16.5882 8.85981 16.2905 8.68715L14.4982 7.64652L9.63281 4.82209C9.71776 4.67101 9.84285 4.5434 9.99781 4.45519L13.9987 2.13371C14.3087 1.95543 14.6886 1.95543 14.9985 2.13371L21.4984 5.90588C21.8083 6.08699 21.9987 6.41822 21.9987 6.77761Z" fill="currentColor"/>
</g>
<defs>
<clipPath id="clip0_40005097_5418">
<rect width="20" height="20" fill="white" transform="translate(2 2)"/>
</clipPath>
</defs>
</svg>
