<svg width="62" height="50" viewBox="0 0 62 50" fill="none" xmlns="http://www.w3.org/2000/svg">
<rect x="1" y="1" width="54" height="42" rx="3" fill="#F3F4F6" stroke="#D1D5DC" stroke-width="2"/>
<rect x="7" y="7" width="54" height="42" rx="3" fill="#F3F4F6" stroke="#D1D5DC" stroke-width="2"/>
<g clip-path="url(#clip0_40003744_123637)">
<path d="M31.5221 29.4498V37.9991C31.3923 38.0038 31.2644 37.9813 31.1421 37.9334C31.0917 37.9156 31.045 37.8931 30.9993 37.8659L24.5003 34.0937C24.4527 34.0665 24.4079 34.0355 24.365 34.0008C24.1876 33.8554 24.0653 33.6489 24.0224 33.4228C24.0075 33.3599 24 33.2923 24 33.2238V25.5594C24 25.4918 24.0075 25.4233 24.0224 25.3586C24.042 25.2451 24.0849 25.1353 24.1475 25.0367C24.2352 24.8885 24.3603 24.7656 24.5172 24.6773L28.505 22.4713C28.8121 22.3005 29.1846 22.3052 29.488 22.4816L31.5006 23.648V29.4376L31.523 29.4498H31.5221Z" fill="#D1D5DC"/>
<path d="M36.1954 18.8624C36.1478 18.8173 36.0984 18.777 36.0452 18.7413C35.7474 18.548 35.3497 18.5105 35.0006 18.7141L32.0004 20.4557C31.6904 20.634 31.5 20.9661 31.5 21.3255V36.4161C31.5 36.4893 31.5075 36.5597 31.5224 36.6272V37.9991C31.6876 37.9963 31.8529 37.9512 32.0004 37.8658L36.0004 35.5434C36.3103 35.3651 36.5007 35.033 36.5007 34.6736V19.584C36.5007 19.2921 36.3803 19.0416 36.1954 18.8624Z" fill="#D1D5DC"/>
<path d="M43.9987 22.7781V27.4192C43.9987 27.7786 43.8083 28.1098 43.4984 28.2909L40.4337 30.07C39.7812 30.4472 38.9635 29.995 38.9336 29.2386L38.7908 25.519C38.7759 25.1746 38.5882 24.8603 38.2905 24.6876L36.4982 23.647L31.6328 20.8226C31.7178 20.6715 31.8428 20.5439 31.9978 20.4557L35.9987 18.1342C36.3087 17.9559 36.6886 17.9559 36.9985 18.1342L43.4984 21.9064C43.8083 22.0875 43.9987 22.4187 43.9987 22.7781Z" fill="#D1D5DC"/>
</g>
<defs>
<clipPath id="clip0_40003744_123637">
<rect width="20" height="20" fill="white" transform="translate(24 18)"/>
</clipPath>
</defs>
</svg>
